<svg width="136" height="136" viewBox="0 0 136 136" fill="none" xmlns="http://www.w3.org/2000/svg">
  <path class="part-1" fill-rule="evenodd" clip-rule="evenodd" d="M8.61919 93.5525C8.61916 93.5525 8.61915 93.5525 8.61916 93.5525C16.6047 114.349 40.1963 124.589 61.2823 116.492C82.3683 108.396 93.0431 84.9975 85.0576 64.2012C85.0576 64.2012 85.0575 64.2012 85.0575 64.2012L82.257 65.2765C82.257 65.2765 82.257 65.2766 82.257 65.2766C89.6318 84.4827 79.7899 106.172 60.2069 113.692C40.6238 121.212 18.7947 111.683 11.4198 92.4771C11.4198 92.4771 11.4197 92.4771 11.4197 92.4771L8.61919 93.5525Z" fill="#FA2828" fill-opacity="0.98"/>
  <path class="part-2" fill-rule="evenodd" clip-rule="evenodd" d="M23.4107 44.3218C22.6232 43.7304 22.4633 42.6078 23.0837 41.8428C39.2531 21.9012 68.6844 18.4112 89.673 34.1728C110.662 49.9343 115.516 79.1716 100.874 100.26C100.312 101.069 99.1895 101.228 98.4019 100.637C97.6143 100.046 97.4599 98.9278 98.0191 98.117C111.449 78.6458 106.987 51.6351 87.5312 37.0249C68.0758 22.4147 40.8919 25.6601 25.9375 43.9868C25.3148 44.7499 24.1983 44.9133 23.4107 44.3218Z" fill="black"/>
</svg>
